<svg xmlns="http://www.w3.org/2000/svg" viewBox="0 0 4002.56 1752.33"><defs><style>.cls-1{fill:#587333;}.cls-2{fill:#685034;}.cls-3{fill:#3e5526;}.cls-4{fill:#4c3217;}.cls-5,.cls-6{fill:#98d3b8;stroke-miterlimit:10;}.cls-5{stroke:#006938;stroke-width:19px;}.cls-6{font-size:688.17px;stroke:#006838;stroke-width:12px;font-family:MarkerFelt-Wide, Marker Felt;}.cls-7{letter-spacing:0.03em;}.cls-8{letter-spacing:0.04em;}.cls-9{letter-spacing:0.06em;}</style></defs><g id="Layer_2" data-name="Layer 2"><g id="Layer_3" data-name="Layer 3"><polygon class="cls-1" points="966 1119.59 769.04 744.03 805 744.03 655.5 458.96 697.67 458.96 600.08 272.88 626.12 272.88 483 0 339.89 272.88 365.93 272.88 268.33 458.96 310.51 458.96 161 744.03 196.96 744.03 0 1119.59 483 1119.59 966 1119.59"/><rect class="cls-2" x="418.09" y="1119.59" width="129.83" height="375.07"/><polyline class="cls-3" points="483 1119.59 966 1119.59 769.04 744.03 805 744.03 655.5 458.96 697.67 458.96 600.08 272.88 626.12 272.88 483 0"/><rect class="cls-4" x="506.44" y="1119.59" width="41.48" height="375.07"/><path class="cls-5" d="M3594.7,1117.42,3516,1256l-113.68-201.07a217.71,217.71,0,0,1,37.42-3.23A214.92,214.92,0,0,1,3594.7,1117.42Z"/><path class="cls-5" d="M3471.26,1196.34H3236.11a216,216,0,0,1,156.32-139.44Z"/><path class="cls-5" d="M3392.69,1205.92l-115.57,202.79A216,216,0,0,1,3233,1205.92Z"/><path class="cls-5" d="M3478.7,1479.25a216,216,0,0,1-194.79-63.1l79-138.7Z"/><path class="cls-5" d="M3643.34,1338.11a216,216,0,0,1-154.77,139.1l-79.77-139.1Z"/><path class="cls-5" d="M3655.27,1267.22a215.76,215.76,0,0,1-8.84,61.31H3485.8l115.72-203.71A214.68,214.68,0,0,1,3655.27,1267.22Z"/><text class="cls-6" transform="translate(634.4 1443.97)"><tspan class="cls-7">N</tspan><tspan x="445.93" y="0">a</tspan><tspan class="cls-8" x="796.9" y="0">t</tspan><tspan class="cls-9" x="1100.36" y="0">u</tspan><tspan x="1483.67" y="0">re L </tspan></text><text class="cls-6" transform="translate(3680 1482.76)">g</text></g></g></svg>