<svg xmlns="http://www.w3.org/2000/svg" xmlns:xlink="http://www.w3.org/1999/xlink" viewBox="0 0 450 450"><defs><style>.cls-1{fill:#68cad6;}.cls-2{fill:url(#linear-gradient);}.cls-3{fill:url(#linear-gradient-2);}.cls-4{fill:url(#linear-gradient-3);}</style><linearGradient id="linear-gradient" x1="-82.6" y1="242.17" x2="83.27" y2="242.17" gradientTransform="matrix(-0.99, -0.16, -0.16, 0.99, 235.31, 8.3)" gradientUnits="userSpaceOnUse"><stop offset="0" stop-color="#006838"/><stop offset="0.72" stop-color="#00a651"/></linearGradient><linearGradient id="linear-gradient-2" x1="152.44" y1="225" x2="371.66" y2="225" gradientUnits="userSpaceOnUse"><stop offset="0" stop-color="#006838"/><stop offset="0.77" stop-color="#00a14f"/><stop offset="1" stop-color="#00a651"/></linearGradient><linearGradient id="linear-gradient-3" x1="2.92" y1="312.9" x2="127.75" y2="312.9" gradientTransform="matrix(-0.94, 0.35, 0.35, 0.94, 98, -4.3)" gradientUnits="userSpaceOnUse"><stop offset="0.3" stop-color="#006838"/><stop offset="1" stop-color="#00a651"/></linearGradient></defs><g id="Layer_2" data-name="Layer 2"><g id="Layer_1-2" data-name="Layer 1"><rect class="cls-1" width="450" height="450"/><path class="cls-2" d="M173.61,119s90.46,43.68,102.48,114.46c10.32,60.74-40.47,121.71-55.1,137.78L205.84,184c-20.68,8.87.65,132.79,11.87,190.74l-.57.58s-90.46-43.68-102.48-114.46S173.61,119,173.61,119Z"/><path class="cls-3" d="M318.12,62.6S190.74,100,159.77,189.69c-26.57,77,26.48,167.42,42.07,191.55l60.21-240.83c25.05,16-29.54,173-56.68,246.12l.6.87S333.36,350,364.32,260.31,318.12,62.6,318.12,62.6Z"/><path class="cls-4" d="M83.94,236.22s75.41-5.42,109.79,36.27c29.5,35.77,19.21,94.6,15.7,110.57l-80.08-116.5c-10.17,13.55,50.2,86.41,79.25,120l-.15.58S133,392.59,98.66,350.9,83.94,236.22,83.94,236.22Z"/></g></g></svg>